<?xml version="1.0" encoding="UTF-8" standalone="no"?>
<!DOCTYPE svg PUBLIC "-//W3C//DTD SVG 1.1//EN"
 "http://www.w3.org/Graphics/SVG/1.1/DTD/svg11.dtd">
<!-- Generated by graphviz version 2.30.1 (20180420.1509)
 -->
<!-- Title: snakemake_dag Pages: 1 -->
<svg width="910pt" height="620pt"
 viewBox="0.00 0.00 910.00 620.00" xmlns="http://www.w3.org/2000/svg" xmlns:xlink="http://www.w3.org/1999/xlink">
<g id="graph0" class="graph" transform="scale(1 1) rotate(0) translate(4 616)">
<title>snakemake_dag</title>
<polygon fill="white" stroke="white" points="-4,5 -4,-616 907,-616 907,5 -4,5"/>
<!-- 0 -->
<g id="node1" class="node"><title>0</title>
<path fill="none" stroke="#bed856" stroke-width="2" d="M265,-36C265,-36 143,-36 143,-36 137,-36 131,-30 131,-24 131,-24 131,-12 131,-12 131,-6 137,-0 143,-0 143,-0 265,-0 265,-0 271,-0 277,-6 277,-12 277,-12 277,-24 277,-24 277,-30 271,-36 265,-36"/>
<text text-anchor="middle" x="204" y="-15.5" font-family="sans" font-size="10.00">get_amino_acid_sequence</text>
</g>
<!-- 1 -->
<g id="node2" class="node"><title>1</title>
<path fill="none" stroke="#bed856" stroke-width="2" d="M753,-36C753,-36 631,-36 631,-36 625,-36 619,-30 619,-24 619,-24 619,-12 619,-12 619,-6 625,-0 631,-0 631,-0 753,-0 753,-0 759,-0 765,-6 765,-12 765,-12 765,-24 765,-24 765,-30 759,-36 753,-36"/>
<text text-anchor="middle" x="692" y="-15.5" font-family="sans" font-size="10.00">get_amino_acid_sequence</text>
</g>
<!-- 2 -->
<g id="node3" class="node"><title>2</title>
<path fill="none" stroke="#566bd8" stroke-width="2" d="M253,-108C253,-108 155,-108 155,-108 149,-108 143,-102 143,-96 143,-96 143,-84 143,-84 143,-78 149,-72 155,-72 155,-72 253,-72 253,-72 259,-72 265,-78 265,-84 265,-84 265,-96 265,-96 265,-102 259,-108 253,-108"/>
<text text-anchor="middle" x="204" y="-87.5" font-family="sans" font-size="10.00">combine_hitted_fasta</text>
</g>
<!-- 2&#45;&gt;0 -->
<g id="edge1" class="edge"><title>2&#45;&gt;0</title>
<path fill="none" stroke="grey" stroke-width="2" d="M204,-71.6966C204,-63.9827 204,-54.7125 204,-46.1124"/>
<polygon fill="grey" stroke="grey" points="207.5,-46.1043 204,-36.1043 200.5,-46.1044 207.5,-46.1043"/>
</g>
<!-- 3 -->
<g id="node4" class="node"><title>3</title>
<path fill="none" stroke="#566bd8" stroke-width="2" d="M741,-108C741,-108 643,-108 643,-108 637,-108 631,-102 631,-96 631,-96 631,-84 631,-84 631,-78 637,-72 643,-72 643,-72 741,-72 741,-72 747,-72 753,-78 753,-84 753,-84 753,-96 753,-96 753,-102 747,-108 741,-108"/>
<text text-anchor="middle" x="692" y="-87.5" font-family="sans" font-size="10.00">combine_hitted_fasta</text>
</g>
<!-- 3&#45;&gt;1 -->
<g id="edge2" class="edge"><title>3&#45;&gt;1</title>
<path fill="none" stroke="grey" stroke-width="2" d="M692,-71.6966C692,-63.9827 692,-54.7125 692,-46.1124"/>
<polygon fill="grey" stroke="grey" points="695.5,-46.1043 692,-36.1043 688.5,-46.1044 695.5,-46.1043"/>
</g>
<!-- 4 -->
<g id="node5" class="node"><title>4</title>
<path fill="none" stroke="#d8a456" stroke-width="2" d="M254,-180C254,-180 154,-180 154,-180 148,-180 142,-174 142,-168 142,-168 142,-156 142,-156 142,-150 148,-144 154,-144 154,-144 254,-144 254,-144 260,-144 266,-150 266,-156 266,-156 266,-168 266,-168 266,-174 260,-180 254,-180"/>
<text text-anchor="middle" x="204" y="-159.5" font-family="sans" font-size="10.00">pear_hitted_sequence</text>
</g>
<!-- 4&#45;&gt;2 -->
<g id="edge3" class="edge"><title>4&#45;&gt;2</title>
<path fill="none" stroke="grey" stroke-width="2" d="M204,-143.697C204,-135.983 204,-126.712 204,-118.112"/>
<polygon fill="grey" stroke="grey" points="207.5,-118.104 204,-108.104 200.5,-118.104 207.5,-118.104"/>
</g>
<!-- 5 -->
<g id="node6" class="node"><title>5</title>
<path fill="none" stroke="#d8a456" stroke-width="2" d="M742,-180C742,-180 642,-180 642,-180 636,-180 630,-174 630,-168 630,-168 630,-156 630,-156 630,-150 636,-144 642,-144 642,-144 742,-144 742,-144 748,-144 754,-150 754,-156 754,-156 754,-168 754,-168 754,-174 748,-180 742,-180"/>
<text text-anchor="middle" x="692" y="-159.5" font-family="sans" font-size="10.00">pear_hitted_sequence</text>
</g>
<!-- 5&#45;&gt;3 -->
<g id="edge4" class="edge"><title>5&#45;&gt;3</title>
<path fill="none" stroke="grey" stroke-width="2" d="M692,-143.697C692,-135.983 692,-126.712 692,-118.112"/>
<polygon fill="grey" stroke="grey" points="695.5,-118.104 692,-108.104 688.5,-118.104 695.5,-118.104"/>
</g>
<!-- 6 -->
<g id="node7" class="node"><title>6</title>
<path fill="none" stroke="#61d856" stroke-width="2" d="M266,-252C266,-252 142,-252 142,-252 136,-252 130,-246 130,-240 130,-240 130,-228 130,-228 130,-222 136,-216 142,-216 142,-216 266,-216 266,-216 272,-216 278,-222 278,-228 278,-228 278,-240 278,-240 278,-246 272,-252 266,-252"/>
<text text-anchor="middle" x="204" y="-231.5" font-family="sans" font-size="10.00">get_hitted_sequence_fastq</text>
</g>
<!-- 6&#45;&gt;4 -->
<g id="edge5" class="edge"><title>6&#45;&gt;4</title>
<path fill="none" stroke="grey" stroke-width="2" d="M204,-215.697C204,-207.983 204,-198.712 204,-190.112"/>
<polygon fill="grey" stroke="grey" points="207.5,-190.104 204,-180.104 200.5,-190.104 207.5,-190.104"/>
</g>
<!-- 7 -->
<g id="node8" class="node"><title>7</title>
<path fill="none" stroke="#61d856" stroke-width="2" d="M754,-252C754,-252 630,-252 630,-252 624,-252 618,-246 618,-240 618,-240 618,-228 618,-228 618,-222 624,-216 630,-216 630,-216 754,-216 754,-216 760,-216 766,-222 766,-228 766,-228 766,-240 766,-240 766,-246 760,-252 754,-252"/>
<text text-anchor="middle" x="692" y="-231.5" font-family="sans" font-size="10.00">get_hitted_sequence_fastq</text>
</g>
<!-- 7&#45;&gt;5 -->
<g id="edge6" class="edge"><title>7&#45;&gt;5</title>
<path fill="none" stroke="grey" stroke-width="2" d="M692,-215.697C692,-207.983 692,-198.712 692,-190.112"/>
<polygon fill="grey" stroke="grey" points="695.5,-190.104 692,-180.104 688.5,-190.104 695.5,-190.104"/>
</g>
<!-- 8 -->
<g id="node9" class="node"><title>8</title>
<path fill="none" stroke="#88d856" stroke-width="2" d="M268,-324C268,-324 140,-324 140,-324 134,-324 128,-318 128,-312 128,-312 128,-300 128,-300 128,-294 134,-288 140,-288 140,-288 268,-288 268,-288 274,-288 280,-294 280,-300 280,-300 280,-312 280,-312 280,-318 274,-324 268,-324"/>
<text text-anchor="middle" x="204" y="-303.5" font-family="sans" font-size="10.00">get_hitted_sequence_id_list</text>
</g>
<!-- 8&#45;&gt;6 -->
<g id="edge7" class="edge"><title>8&#45;&gt;6</title>
<path fill="none" stroke="grey" stroke-width="2" d="M204,-287.697C204,-279.983 204,-270.712 204,-262.112"/>
<polygon fill="grey" stroke="grey" points="207.5,-262.104 204,-252.104 200.5,-262.104 207.5,-262.104"/>
</g>
<!-- 9 -->
<g id="node10" class="node"><title>9</title>
<path fill="none" stroke="#88d856" stroke-width="2" d="M756,-324C756,-324 628,-324 628,-324 622,-324 616,-318 616,-312 616,-312 616,-300 616,-300 616,-294 622,-288 628,-288 628,-288 756,-288 756,-288 762,-288 768,-294 768,-300 768,-300 768,-312 768,-312 768,-318 762,-324 756,-324"/>
<text text-anchor="middle" x="692" y="-303.5" font-family="sans" font-size="10.00">get_hitted_sequence_id_list</text>
</g>
<!-- 9&#45;&gt;7 -->
<g id="edge8" class="edge"><title>9&#45;&gt;7</title>
<path fill="none" stroke="grey" stroke-width="2" d="M692,-287.697C692,-279.983 692,-270.712 692,-262.112"/>
<polygon fill="grey" stroke="grey" points="695.5,-262.104 692,-252.104 688.5,-262.104 695.5,-262.104"/>
</g>
<!-- 10 -->
<g id="node11" class="node"><title>10</title>
<path fill="none" stroke="#56b9d8" stroke-width="2" stroke-dasharray="5,2" d="M178.25,-396C178.25,-396 23.75,-396 23.75,-396 17.75,-396 11.75,-390 11.75,-384 11.75,-384 11.75,-372 11.75,-372 11.75,-366 17.75,-360 23.75,-360 23.75,-360 178.25,-360 178.25,-360 184.25,-360 190.25,-366 190.25,-372 190.25,-372 190.25,-384 190.25,-384 190.25,-390 184.25,-396 178.25,-396"/>
<text text-anchor="middle" x="101" y="-375.5" font-family="sans" font-size="10.00">run_tblastx_for_assembled_fasta</text>
</g>
<!-- 10&#45;&gt;8 -->
<g id="edge9" class="edge"><title>10&#45;&gt;8</title>
<path fill="none" stroke="grey" stroke-width="2" d="M126.197,-359.876C139.414,-350.893 155.792,-339.763 170.107,-330.034"/>
<polygon fill="grey" stroke="grey" points="172.403,-332.705 178.707,-324.19 168.468,-326.916 172.403,-332.705"/>
</g>
<!-- 11 -->
<g id="node12" class="node"><title>11</title>
<path fill="none" stroke="#567bd8" stroke-width="2" stroke-dasharray="5,2" d="M390.25,-396C390.25,-396 223.75,-396 223.75,-396 217.75,-396 211.75,-390 211.75,-384 211.75,-384 211.75,-372 211.75,-372 211.75,-366 217.75,-360 223.75,-360 223.75,-360 390.25,-360 390.25,-360 396.25,-360 402.25,-366 402.25,-372 402.25,-372 402.25,-384 402.25,-384 402.25,-390 396.25,-396 390.25,-396"/>
<text text-anchor="middle" x="307" y="-375.5" font-family="sans" font-size="10.00">run_tblastx_for_unassembled_fasta</text>
</g>
<!-- 11&#45;&gt;8 -->
<g id="edge10" class="edge"><title>11&#45;&gt;8</title>
<path fill="none" stroke="grey" stroke-width="2" d="M281.803,-359.876C268.586,-350.893 252.208,-339.763 237.893,-330.034"/>
<polygon fill="grey" stroke="grey" points="239.532,-326.916 229.293,-324.19 235.597,-332.705 239.532,-326.916"/>
</g>
<!-- 12 -->
<g id="node13" class="node"><title>12</title>
<path fill="none" stroke="#56b9d8" stroke-width="2" stroke-dasharray="5,2" d="M665.25,-396C665.25,-396 510.75,-396 510.75,-396 504.75,-396 498.75,-390 498.75,-384 498.75,-384 498.75,-372 498.75,-372 498.75,-366 504.75,-360 510.75,-360 510.75,-360 665.25,-360 665.25,-360 671.25,-360 677.25,-366 677.25,-372 677.25,-372 677.25,-384 677.25,-384 677.25,-390 671.25,-396 665.25,-396"/>
<text text-anchor="middle" x="588" y="-375.5" font-family="sans" font-size="10.00">run_tblastx_for_assembled_fasta</text>
</g>
<!-- 12&#45;&gt;9 -->
<g id="edge11" class="edge"><title>12&#45;&gt;9</title>
<path fill="none" stroke="grey" stroke-width="2" d="M613.441,-359.876C626.787,-350.893 643.324,-339.763 657.778,-330.034"/>
<polygon fill="grey" stroke="grey" points="660.119,-332.677 666.461,-324.19 656.211,-326.87 660.119,-332.677"/>
</g>
<!-- 13 -->
<g id="node14" class="node"><title>13</title>
<path fill="none" stroke="#567bd8" stroke-width="2" stroke-dasharray="5,2" d="M880.25,-396C880.25,-396 713.75,-396 713.75,-396 707.75,-396 701.75,-390 701.75,-384 701.75,-384 701.75,-372 701.75,-372 701.75,-366 707.75,-360 713.75,-360 713.75,-360 880.25,-360 880.25,-360 886.25,-360 892.25,-366 892.25,-372 892.25,-372 892.25,-384 892.25,-384 892.25,-390 886.25,-396 880.25,-396"/>
<text text-anchor="middle" x="797" y="-375.5" font-family="sans" font-size="10.00">run_tblastx_for_unassembled_fasta</text>
</g>
<!-- 13&#45;&gt;9 -->
<g id="edge12" class="edge"><title>13&#45;&gt;9</title>
<path fill="none" stroke="grey" stroke-width="2" d="M771.314,-359.876C757.712,-350.808 740.828,-339.552 726.139,-329.759"/>
<polygon fill="grey" stroke="grey" points="728.047,-326.825 717.785,-324.19 724.164,-332.649 728.047,-326.825"/>
</g>
<!-- 14 -->
<g id="node15" class="node"><title>14</title>
<path fill="none" stroke="#d87d56" stroke-width="2" stroke-dasharray="5,2" d="M182,-468C182,-468 12,-468 12,-468 6,-468 0,-462 0,-456 0,-456 0,-444 0,-444 0,-438 6,-432 12,-432 12,-432 182,-432 182,-432 188,-432 194,-438 194,-444 194,-444 194,-456 194,-456 194,-462 188,-468 182,-468"/>
<text text-anchor="middle" x="97" y="-447.5" font-family="sans" font-size="10.00">translate_assembled_fastq_to_fasta</text>
</g>
<!-- 14&#45;&gt;10 -->
<g id="edge13" class="edge"><title>14&#45;&gt;10</title>
<path fill="none" stroke="grey" stroke-width="2" d="M97.9888,-431.697C98.4296,-423.983 98.9593,-414.712 99.4507,-406.112"/>
<polygon fill="grey" stroke="grey" points="102.946,-406.288 100.023,-396.104 95.9577,-405.888 102.946,-406.288"/>
</g>
<!-- 15 -->
<g id="node16" class="node"><title>15</title>
<path fill="none" stroke="#d85656" stroke-width="2" stroke-dasharray="5,2" d="M402,-468C402,-468 224,-468 224,-468 218,-468 212,-462 212,-456 212,-456 212,-444 212,-444 212,-438 218,-432 224,-432 224,-432 402,-432 402,-432 408,-432 414,-438 414,-444 414,-444 414,-456 414,-456 414,-462 408,-468 402,-468"/>
<text text-anchor="middle" x="313" y="-447.5" font-family="sans" font-size="10.00">add_50_N_to_unassembled_sequence</text>
</g>
<!-- 15&#45;&gt;11 -->
<g id="edge14" class="edge"><title>15&#45;&gt;11</title>
<path fill="none" stroke="grey" stroke-width="2" d="M311.517,-431.697C310.856,-423.983 310.061,-414.712 309.324,-406.112"/>
<polygon fill="grey" stroke="grey" points="312.807,-405.769 308.466,-396.104 305.833,-406.367 312.807,-405.769"/>
</g>
<!-- 16 -->
<g id="node17" class="node"><title>16</title>
<path fill="none" stroke="#d87d56" stroke-width="2" stroke-dasharray="5,2" d="M670,-468C670,-468 500,-468 500,-468 494,-468 488,-462 488,-456 488,-456 488,-444 488,-444 488,-438 494,-432 500,-432 500,-432 670,-432 670,-432 676,-432 682,-438 682,-444 682,-444 682,-456 682,-456 682,-462 676,-468 670,-468"/>
<text text-anchor="middle" x="585" y="-447.5" font-family="sans" font-size="10.00">translate_assembled_fastq_to_fasta</text>
</g>
<!-- 16&#45;&gt;12 -->
<g id="edge15" class="edge"><title>16&#45;&gt;12</title>
<path fill="none" stroke="grey" stroke-width="2" d="M585.742,-431.697C586.072,-423.983 586.469,-414.712 586.838,-406.112"/>
<polygon fill="grey" stroke="grey" points="590.335,-406.245 587.267,-396.104 583.342,-405.945 590.335,-406.245"/>
</g>
<!-- 17 -->
<g id="node18" class="node"><title>17</title>
<path fill="none" stroke="#d85656" stroke-width="2" stroke-dasharray="5,2" d="M890,-468C890,-468 712,-468 712,-468 706,-468 700,-462 700,-456 700,-456 700,-444 700,-444 700,-438 706,-432 712,-432 712,-432 890,-432 890,-432 896,-432 902,-438 902,-444 902,-444 902,-456 902,-456 902,-462 896,-468 890,-468"/>
<text text-anchor="middle" x="801" y="-447.5" font-family="sans" font-size="10.00">add_50_N_to_unassembled_sequence</text>
</g>
<!-- 17&#45;&gt;13 -->
<g id="edge16" class="edge"><title>17&#45;&gt;13</title>
<path fill="none" stroke="grey" stroke-width="2" d="M800.011,-431.697C799.57,-423.983 799.041,-414.712 798.549,-406.112"/>
<polygon fill="grey" stroke="grey" points="802.042,-405.888 797.977,-396.104 795.054,-406.288 802.042,-405.888"/>
</g>
<!-- 18 -->
<g id="node19" class="node"><title>18</title>
<path fill="none" stroke="#56d8c1" stroke-width="2" stroke-dasharray="5,2" d="M268,-540C268,-540 222,-540 222,-540 216,-540 210,-534 210,-528 210,-528 210,-516 210,-516 210,-510 216,-504 222,-504 222,-504 268,-504 268,-504 274,-504 280,-510 280,-516 280,-516 280,-528 280,-528 280,-534 274,-540 268,-540"/>
<text text-anchor="middle" x="245" y="-519.5" font-family="sans" font-size="10.00">move_files</text>
</g>
<!-- 18&#45;&gt;14 -->
<g id="edge17" class="edge"><title>18&#45;&gt;14</title>
<path fill="none" stroke="grey" stroke-width="2" d="M209.926,-504.411C189.657,-494.824 163.94,-482.661 142.17,-472.364"/>
<polygon fill="grey" stroke="grey" points="143.645,-469.19 133.109,-468.078 140.652,-475.518 143.645,-469.19"/>
</g>
<!-- 18&#45;&gt;15 -->
<g id="edge18" class="edge"><title>18&#45;&gt;15</title>
<path fill="none" stroke="grey" stroke-width="2" d="M261.809,-503.697C270.126,-495.135 280.305,-484.656 289.39,-475.304"/>
<polygon fill="grey" stroke="grey" points="291.927,-477.716 296.384,-468.104 286.906,-472.838 291.927,-477.716"/>
</g>
<!-- 19 -->
<g id="node20" class="node"><title>19</title>
<path fill="none" stroke="#56d8c1" stroke-width="2" stroke-dasharray="5,2" d="M676,-540C676,-540 630,-540 630,-540 624,-540 618,-534 618,-528 618,-528 618,-516 618,-516 618,-510 624,-504 630,-504 630,-504 676,-504 676,-504 682,-504 688,-510 688,-516 688,-516 688,-528 688,-528 688,-534 682,-540 676,-540"/>
<text text-anchor="middle" x="653" y="-519.5" font-family="sans" font-size="10.00">move_files</text>
</g>
<!-- 19&#45;&gt;16 -->
<g id="edge19" class="edge"><title>19&#45;&gt;16</title>
<path fill="none" stroke="grey" stroke-width="2" d="M636.191,-503.697C627.874,-495.135 617.695,-484.656 608.61,-475.304"/>
<polygon fill="grey" stroke="grey" points="611.094,-472.838 601.616,-468.104 606.073,-477.716 611.094,-472.838"/>
</g>
<!-- 19&#45;&gt;17 -->
<g id="edge20" class="edge"><title>19&#45;&gt;17</title>
<path fill="none" stroke="grey" stroke-width="2" d="M688.074,-504.411C708.343,-494.824 734.06,-482.661 755.83,-472.364"/>
<polygon fill="grey" stroke="grey" points="757.348,-475.518 764.891,-468.078 754.355,-469.19 757.348,-475.518"/>
</g>
<!-- 20 -->
<g id="node21" class="node"><title>20</title>
<path fill="none" stroke="#56d863" stroke-width="2" stroke-dasharray="5,2" d="M394.25,-612C394.25,-612 95.75,-612 95.75,-612 89.75,-612 83.75,-606 83.75,-600 83.75,-600 83.75,-588 83.75,-588 83.75,-582 89.75,-576 95.75,-576 95.75,-576 394.25,-576 394.25,-576 400.25,-576 406.25,-582 406.25,-588 406.25,-588 406.25,-600 406.25,-600 406.25,-606 400.25,-612 394.25,-612"/>
<text text-anchor="middle" x="245" y="-597" font-family="sans" font-size="10.00">Pear</text>
<text text-anchor="middle" x="245" y="-586" font-family="sans" font-size="10.00">sample: 12&#45;FJMYR20171BOTTOM_GACCAGGA&#45;ATAGCCAG_L005</text>
</g>
<!-- 20&#45;&gt;18 -->
<g id="edge21" class="edge"><title>20&#45;&gt;18</title>
<path fill="none" stroke="grey" stroke-width="2" d="M245,-575.697C245,-567.983 245,-558.712 245,-550.112"/>
<polygon fill="grey" stroke="grey" points="248.5,-550.104 245,-540.104 241.5,-550.104 248.5,-550.104"/>
</g>
<!-- 21 -->
<g id="node22" class="node"><title>21</title>
<path fill="none" stroke="#56d863" stroke-width="2" stroke-dasharray="5,2" d="M789,-612C789,-612 517,-612 517,-612 511,-612 505,-606 505,-600 505,-600 505,-588 505,-588 505,-582 511,-576 517,-576 517,-576 789,-576 789,-576 795,-576 801,-582 801,-588 801,-588 801,-600 801,-600 801,-606 795,-612 789,-612"/>
<text text-anchor="middle" x="653" y="-597" font-family="sans" font-size="10.00">Pear</text>
<text text-anchor="middle" x="653" y="-586" font-family="sans" font-size="10.00">sample: 11&#45;FJMYR20171top_GCCTAGCC&#45;CAGACCAA_L005</text>
</g>
<!-- 21&#45;&gt;19 -->
<g id="edge22" class="edge"><title>21&#45;&gt;19</title>
<path fill="none" stroke="grey" stroke-width="2" d="M653,-575.697C653,-567.983 653,-558.712 653,-550.112"/>
<polygon fill="grey" stroke="grey" points="656.5,-550.104 653,-540.104 649.5,-550.104 656.5,-550.104"/>
</g>
</g>
</svg>
